PathFileType	4	(X/Y/Z)	RBDS002static.trc
DataRate	CameraRate	NumFrames	NumMarkers	Units	OrigDataRate	OrigDataStartFrame	OrigNumFrames
150.000000	150.000000	4	48	mm	150.000000	0	150
Frame#	Time	L.Ankle			L.Ankle.Medial			L.ASIS			L.GTR			L.Heel.Bottom			L.Heel.Lateral			L.Heel.Top			L.HF			L.Iliac.Crest			L.Knee			L.Knee.Medial			L.MT1			L.MT2			L.MT5			L.PSIS			L.Shank.Bottom.Lateral			L.Shank.Bottom.Medial			L.Shank.Top.Lateral			L.Shank.Top.Medial			L.Thigh.Bottom.Lateral			L.Thigh.Bottom.Medial			L.Thigh.Top.Lateral			L.Thigh.Top.Medial			L.TT			R.Ankle			R.Ankle.Medial			R.ASIS			R.GTR			R.Heel.Bottom			R.Heel.Lateral			R.Heel.Top			R.HF			R.Iliac.Crest			R.Knee			R.Knee.Medial			R.MT1			R.MT2			R.MT5			R.PSIS			R.Shank.Bottom.Lateral			R.Shank.Bottom.Medial			R.Shank.Top.Lateral			R.Shank.Top.Medial			R.Thigh.Bottom.Lateral			R.Thigh.Bottom.Medial			R.Thigh.Top.Lateral			R.Thigh.Top.Medial			R.TT			
		X1	Y1	Z1	X2	Y2	Z2	X3	Y3	Z3	X4	Y4	Z4	X5	Y5	Z5	X6	Y6	Z6	X7	Y7	Z7	X8	Y8	Z8	X9	Y9	Z9	X10	Y10	Z10	X11	Y11	Z11	X12	Y12	Z12	X13	Y13	Z13	X14	Y14	Z14	X15	Y15	Z15	X16	Y16	Z16	X17	Y17	Z17	X18	Y18	Z18	X19	Y19	Z19	X20	Y20	Z20	X21	Y21	Z21	X22	Y22	Z22	X23	Y23	Z23	X24	Y24	Z24	X25	Y25	Z25	X26	Y26	Z26	X27	Y27	Z27	X28	Y28	Z28	X29	Y29	Z29	X30	Y30	Z30	X31	Y31	Z31	X32	Y32	Z32	X33	Y33	Z33	X34	Y34	Z34	X35	Y35	Z35	X36	Y36	Z36	X37	Y37	Z37	X38	Y38	Z38	X39	Y39	Z39	X40	Y40	Z40	X41	Y41	Z41	X42	Y42	Z42	X43	Y43	Z43	X44	Y44	Z44	X45	Y45	Z45	X46	Y46	Z46	X47	Y47	Z47	X48	Y48	Z48	

1	0	713.2020874023438	106.3237075805664	1030.539794921875	735.403564453125	119.1407241821289	1112.059326171875	854.7075805664063	1050.515991210938	1108.164184570313	776.4580078125	953.7887573242188	1031.523681640625	637.380126953125	44.17006683349609	1072.241455078125	670.4688720703125	55.18191146850586	1027.260620117188	648.8626098632813	94.18795776367188	1071.395751953125	723.8416137695313	483.997314453125	1007.7998046875	768.3818969726563	1129.46142578125	1051.272705078125	736.7289428710938	551.9515991210938	1011.655883789063	715.438720703125	530.048828125	1140.313354492188	864.9882202148438	63.6588020324707	1121.746337890625	871.5455932617188	71.25053405761719	1073.827880859375	838.745849609375	47.48238754272461	1005.17529296875	667.0390014648438	1096.398681640625	1166.67919921875	701.873291015625	176.4287109375	1020.244567871094	663.1531982421875	175.6738128662109	1054.160522460938	691.641845703125	255.2420349121094	1004.447387695313	653.1878662109375	259.3258972167969	1041.069946289063	726.5770263671875	648.9962768554688	1010.443969726563	674.0843505859375	641.9445190429688	1061.275146484375	715.6249389648438	758.8300170898438	1019.445495605469	669.0667724609375	752.2385864257813	1069.757080078125	780.9716186523438	459.9586181640625	1062.818359375	709.9635009765625	105.0042572021484	1411.213745117188	733.086181640625	121.2801132202148	1327.2705078125	850.4617309570313	1049.921997070313	1326.650756835938	768.2921142578125	964.6469116210938	1398.604248046875	632.5694580078125	44.09608840942383	1374.5771484375	658.073974609375	59.24211120605469	1412.328125	644.7647705078125	94.48007965087891	1373.2138671875	734.2130737304688	486.7113952636719	1422.58984375	765.2767944335938	1132.763305664063	1373.982543945313	734.814453125	558.9010620117188	1415.422607421875	722.51220703125	535.8784790039063	1284.636840820313	862.5156860351563	66.25740814208984	1323.610717773438	865.8890380859375	74.73725128173828	1366.893432617188	838.3937377929688	56.98898696899414	1435.802734375	665.5855712890625	1098.091796875	1255.795532226563	697.46533203125	189.2389221191406	1423.519287109375	657.6080932617188	191.3800048828125	1386.314331054688	688.784423828125	269.0293884277344	1435.584838867188	651.3235473632813	270.5315856933594	1396.151123046875	719.081298828125	660.1998291015625	1417.64453125	666.191162109375	657.8527221679688	1365.510620117188	710.9688110351563	770.7847900390625	1416.97607421875	661.7921142578125	768.0202026367188	1366.738525390625	789.4269409179688	475.6644897460938	1367.330932617188	
2	0.006666666666666667	713.205078125	106.3157653808594	1030.5478515625	735.4032592773438	119.1342239379883	1112.046630859375	854.691162109375	1050.526977539063	1108.165283203125	776.4203491210938	953.7926635742188	1031.532958984375	637.3804321289063	44.17177963256836	1072.238525390625	670.4675903320313	55.18451690673828	1027.25732421875	648.8678588867188	94.18307495117188	1071.3974609375	723.8228149414063	483.9996643066406	1007.797302246094	768.3589477539063	1129.460815429688	1051.271484375	736.7189331054688	551.9600830078125	1011.6552734375	715.4232177734375	530.060302734375	1140.322998046875	864.97998046875	63.66414260864258	1121.74755859375	871.5444946289063	71.25148773193359	1073.826293945313	838.7437133789063	47.48257064819336	1005.167419433594	667.0120239257813	1096.400756835938	1166.689819335938	701.8845825195313	176.4248809814453	1020.238830566406	663.1453857421875	175.6730499267578	1054.172607421875	691.6337890625	255.2403717041016	1004.453857421875	653.1700439453125	259.3410034179688	1041.076538085938	726.5552368164063	649.0032958984375	1010.446594238281	674.0628051757813	641.9426879882813	1061.280029296875	715.6107788085938	758.8387451171875	1019.459655761719	669.0498046875	752.2388916015625	1069.757446289063	781.0967407226563	460.4479675292969	1062.296875	709.98828125	105.0302124023438	1411.209350585938	733.0797729492188	121.2831497192383	1327.263305664063	850.3287963867188	1049.924072265625	1326.550659179688	768.2655639648438	964.6466674804688	1398.6044921875	632.5650024414063	44.08843231201172	1374.579956054688	658.0651245117188	59.23953247070313	1412.332397460938	644.7638549804688	94.4725341796875	1373.2216796875	734.208251953125	486.7143859863281	1422.584838867188	765.2655639648438	1132.769165039063	1373.983642578125	734.8001098632813	558.8895874023438	1415.4169921875	722.5406494140625	535.8942260742188	1284.663330078125	862.5114135742188	66.26266479492188	1323.627685546875	865.8858032226563	74.71776580810547	1366.873168945313	838.3908081054688	56.98855590820313	1435.806030273438	665.5723266601563	1098.094848632813	1255.795654296875	697.4678344726563	189.2383575439453	1423.511352539063	657.6065673828125	191.3829193115234	1386.303955078125	688.7874145507813	269.027587890625	1435.575805664063	651.3132934570313	270.5308227539063	1396.150512695313	719.07080078125	660.1940307617188	1417.651245117188	666.1760864257813	657.8533325195313	1365.531860351563	710.9533081054688	770.79638671875	1416.986572265625	661.777099609375	768.0228271484375	1366.739501953125	789.4209594726563	475.66552734375	1367.343505859375	
3	0.01333333333333333	713.2025146484375	106.3200149536133	1030.546508789063	735.3995361328125	119.1566467285156	1112.059814453125	854.665283203125	1050.529174804688	1108.173583984375	776.400634765625	953.7986450195313	1031.5234375	637.378173828125	44.1751708984375	1072.242431640625	670.4609375	55.18227386474609	1027.257568359375	648.8661499023438	94.17488861083984	1071.390502929688	723.7051391601563	483.9552307128906	1007.835327148438	768.341064453125	1129.46533203125	1051.274780273438	736.707275390625	551.9566650390625	1011.662780761719	715.4224243164063	530.0631713867188	1140.313110351563	864.98583984375	63.66336822509766	1121.740356445313	871.5369873046875	71.25277709960938	1073.822021484375	838.7365112304688	47.48565673828125	1005.170532226563	666.9899291992188	1096.396240234375	1166.693603515625	701.8743286132813	176.4321899414063	1020.241455078125	663.1508178710938	175.664794921875	1054.161499023438	691.6318359375	255.2358703613281	1004.455139160156	653.174072265625	259.3249206542969	1041.076904296875	726.5333251953125	648.9982299804688	1010.440307617188	674.0498046875	641.9426879882813	1061.283569335938	715.593017578125	758.83984375	1019.4619140625	669.030029296875	752.2366943359375	1069.766479492188	781.0928955078125	460.4420471191406	1062.290771484375	709.9915161132813	105.0176086425781	1411.206787109375	733.0885620117188	121.2746276855469	1327.276489257813	850.3036499023438	1049.929077148438	1326.543212890625	768.253662109375	964.6382446289063	1398.616821289063	632.572998046875	44.08950805664063	1374.575439453125	658.0728149414063	59.24440383911133	1412.324340820313	644.7667236328125	94.48149871826172	1373.215698242188	734.202392578125	486.7174377441406	1422.589599609375	765.2482299804688	1132.776000976563	1373.985717773438	734.7926635742188	558.89697265625	1415.439819335938	722.5418090820313	535.8907470703125	1284.676513671875	862.5005493164063	66.25653076171875	1323.6123046875	865.8759155273438	74.74458312988281	1366.890869140625	838.392822265625	56.99690628051758	1435.815673828125	665.5499877929688	1098.095581054688	1255.792724609375	697.462646484375	189.244140625	1423.523681640625	657.605712890625	191.3795166015625	1386.306762695313	688.7847290039063	269.0295104980469	1435.578125	651.3157958984375	270.5300903320313	1396.153686523438	719.0587768554688	660.205078125	1417.652954101563	666.165283203125	657.8544921875	1365.548217773438	710.9434814453125	770.7908935546875	1416.990966796875	661.7609252929688	768.017822265625	1366.742797851563	789.4132690429688	475.6705627441406	1367.327392578125	
4	0.02	713.1994018554688	106.3185272216797	1030.529541015625	735.3906860351563	119.130126953125	1112.052490234375	854.6537475585938	1050.528198242188	1108.180908203125	776.37255859375	953.7962646484375	1031.537841796875	637.3837890625	44.17375946044922	1072.24462890625	670.4656372070313	55.18123626708984	1027.261962890625	648.8698120117188	94.18170928955078	1071.395263671875	723.7098388671875	483.960693359375	1007.837585449219	768.3123168945313	1129.475708007813	1051.286499023438	736.702880859375	551.962646484375	1011.663879394531	715.426513671875	530.0576782226563	1140.320556640625	864.990478515625	63.66452407836914	1121.731201171875	871.5428466796875	71.24561309814453	1073.8203125	838.740478515625	47.47919845581055	1005.172058105469	666.9613647460938	1096.397216796875	1166.700805664063	701.8720703125	176.4263153076172	1020.240234375	663.1478881835938	175.667724609375	1054.174072265625	691.63232421875	255.2405548095703	1004.459716796875	653.1685791015625	259.3192443847656	1041.093383789063	726.5223388671875	648.9977416992188	1010.444946289063	674.0382080078125	641.9442749023438	1061.282348632813	715.5858154296875	758.833251953125	1019.477661132813	669.0111083984375	752.2323608398438	1069.770874023438	781.5173950195313	460.7422180175781	1061.953002929688	709.9880981445313	105.0196380615234	1411.208129882813	733.0879516601563	121.2757949829102	1327.272216796875	850.293212890625	1049.924438476563	1326.54296875	768.2250366210938	964.6533203125	1398.612182617188	632.5675659179688	44.09692764282227	1374.585815429688	658.0709228515625	59.24826049804688	1412.3203125	644.7584838867188	94.47978210449219	1373.2177734375	734.201171875	486.7126159667969	1422.591552734375	765.2288208007813	1132.804565429688	1373.986083984375	734.799072265625	558.8978271484375	1415.43017578125	722.5422973632813	535.8923950195313	1284.67333984375	862.5191040039063	66.26436614990234	1323.616943359375	865.896240234375	74.73419952392578	1366.879150390625	838.3890380859375	56.9854850769043	1435.8115234375	665.519287109375	1098.088012695313	1255.81201171875	697.4610595703125	189.2452239990234	1423.514892578125	657.6087036132813	191.3837890625	1386.31640625	688.779052734375	269.0282287597656	1435.5810546875	651.3116455078125	270.5301818847656	1396.147338867188	719.057373046875	660.2022094726563	1417.66748046875	666.1593627929688	657.8433227539063	1365.535034179688	710.929443359375	770.7891235351563	1417.002197265625	661.7433471679688	768.0126953125	1366.75146484375	789.4183349609375	475.6700744628906	1367.348266601563	
